<svg xmlns="http://www.w3.org/2000/svg" aria-hidden="true" style="position:absolute;width:0;height:0;overflow:hidden"><defs><symbol id="icon-clientfifth" viewBox="0 0 59 32"><path fill="#afb1b8" d="M20 21h1v1h-2v-2h2l-1 1zm-1 0h1v-1h-1v1zm1 1v-1h-1v1h1zM22 22v-1 1h-1v-2h2v1c0 1 0 0 0 0h-1l1 1h-1zm0-1v-1c0-1 0 0 0 0v1zM25 22h-2l1-2h1l1 2h-1zm0-1v-1l-1 1h1zM28 22l-1-1v1h-1v-2h1l1 1v-1 2zM31 22h-2v-2h2a1 1 0 0 1 0 2zm-1-1h1l-1-1v2-1zM25 8s6 2 6 5v5s-6-2-6-5V8zM37 17l4-1v-2l-4 3z" style="fill:var(--color1, #afb1b8)"/><path fill="#afb1b8" d="M36 17c1-1 3-3 5-3V9s-9 3-9 7v8l1-1 3-6z" style="fill:var(--color1, #afb1b8)"/><path fill="#afb1b8" d="M35 20v-1a7 7 0 0 0-1 4l1-1v-2zM36 20v2c2-1 5-3 5-6l-5 2v2z" style="fill:var(--color1, #afb1b8)"/></symbol><symbol id="icon-clientfirst" viewBox="0 0 59 32"><path fill="#afb1b8" d="m24 9 3 2h-5v11h12v-4l3 2V9H24zm10 9-7-7h7v7zm-2 2h-8v-7h1v7h7zm-6 4h-1 1v1-1zm0 1h1v-1l-1 1zm1-1h-1 1zm1 0v1h1v-1h-1zm0 1v-1 1zm0-1zm2 1v-1 1-1h-1v1h1zm1 0v-1h-1c-1 0 0 0 0 0v1h1zm0-1v1c0 1 0 0 0 0v-1z" style="fill:var(--color1, #afb1b8)"/></symbol><symbol id="icon-clientfourth" viewBox="0 0 59 32"><path fill="#2196f3" d="m20 13-2 1 2 2 1-2-1-1zM31 12l-2-2-3-1-3 1-1 2v6s9-1 9-6zM15 20l1 2 2 1 2-1 1-2v-4s-6 1-6 4zm3 1-1-1 1-1 1 1v1h-1zM24 20v1h-1v-2h1v1zm2 0v1h-2v-1h1v-1 1h1c1 0 0 0 0 0zm-1 0v1-1zm2 1v-1h-1v-1a1 1 0 0 1 1 0v1h-1 1v1h-1v-1 1h1zm1-1v1h-1v-2h1v1zm1 0v1h-1v-2h1v1zm1 0v1-2l1 1c1 1 0 0 0 0h-1l1 1h-1v-1zm0 0zm2 0v1h-1v-2h1v1h1-1c-1 0 0 0 0 0zm0 0zm2 0h-1v1h1-1v-2h1v1h-1 1zm1 0v1h-1v-2h1v1zm1 0v1h-1v-2h1v1zm1 0v1h-1v-2h1v1h1-1c-1 0 0 0 0 0l1 1h-1v-1zm0 0zm2 1-1-1c-1 0 0 0 0 0v-1a1 1 0 0 1 1 0v1h-1c-1 0 0 0 0 0h1v1h-1v-1 1h1z" style="fill:var(--color2, #2196f3)"/></symbol><symbol id="icon-clientsecond" viewBox="0 0 59 32"><path fill="#afb1b8" d="M29 8h-1l-4 1v8a13 13 0 0 1 4-1v1a11 11 0 0 0-5 2V9a10 10 0 0 1 5-2 9 9 0 0 1 2 0v1h-1zm1 1h1a11 11 0 0 0 5-1v10a10 10 0 0 1-7 1V9a9 9 0 0 0 1 0zm5 0-1 1a12 12 0 0 1-4 0v8a8 8 0 0 0 3 0l2-1V9zM24 22a1 1 0 0 0-1 0v2a1 1 0 0 0 1 0v-1h-1v1-2h1zM26 22a1 1 0 0 0-1 0v2h1v-2zm-1 2v-2 2zM28 24v-2 1l-1-1v2-1 1h1v-1 1zM30 22h-1v2h1v-2zm0 1v-1 1zM32 22l-1 2h1v-2zm0 1v-1 1zM34 23v-1h-1v2h1v-1 1-2 1zM36 22v1-1h-1l1 1v1-1l1-1h-1zM23 25zM24 25zm0 0zM25 25h1-1 1-1zM27 25zM28 25zM29 25zM30 25zM33 25h-1 1zM34 25zM35 25zm0 0zM36 25h1-1 1-1z" style="fill:var(--color1, #afb1b8)"/></symbol><symbol id="icon-clientsixth" viewBox="0 0 59 32"><path fill="#afb1b8" d="M30 15v-3l1 1v1-1h-1v2h1v-1 1h-1c-1 0 0 0 0 0zM32 15v-2l1-1 1 1c1 0 0 0 0 0v2h-2zm1 0v-2h-1v2h1z" style="fill:var(--color1, #afb1b8)"/><path fill="#afb1b8" d="M34 12h1l1 2v-2h1v3h-1v-2 2h-1v-2 2h-1v-3zM37 12h1l1 1-1 1v1h-1v-3zm1 2 1-1h-1c-1 0 0 0 0 0v1zM40 12h1v3h-2l1-3zm1 2-1-1v1h1zM42 12l1 2v-2 3l-1-1v1-3zM45 14l-1-2h1v2-2h1l-1 2v1-1zM31 17h-1v1-1h-1 2zM32 18v-1h-1v1-1h1v1zm-1-1h1-1zM33 18a1 1 0 0 0 1 0v-1h-1 1v1a1 1 0 0 1-1 0 1 1 0 0 1-1-1h1a1 1 0 0 1 1 0h-1v1zM35 18h1-1v-1 1zM36 18v-1 1zM37 17l1 1v-1 1l-1-1v1-1zM40 17h-1 1-1v1h1-1v-1h1zM18 9l9 2v7l-9-2V9zm0-1v9l10 2v-9L18 8z" style="fill:var(--color1, #afb1b8)"/><path fill="#afb1b8" d="m23 23-10-2v-9l10 2v9z" style="fill:var(--color1, #afb1b8)"/><path fill="#afb1b8" d="m18 8 9 3-4 3-9-2 4-4zm0 0-5 4 10 2 5-4-10-2zM24 23l4-4-4-1v5z" style="fill:var(--color1, #afb1b8)"/></symbol><symbol id="icon-clientthird" viewBox="0 0 59 32"><path fill="#afb1b8" d="M24 23h-1a1 1 0 0 1 0-1 1 1 0 0 1 1 0 1 1 0 0 0-1 0v1h1zM26 22v1h-1v-1h1zm0 0h-1v1h1v-1zM27 22v1l1-1c0-1 0 0 0 0v1-1 1h-1v-1 1-1zM29 22v1-1h1-1zm0 0h1-1zM32 23h-1v-1l1 1zm-1-1zM33 22l1 1v-1 1l-1-1v1-1zM35 22v1-1h-1 2-1zM27 20h1l3-3 1-3-2-1v3l-3 4z" style="fill:var(--color1, #afb1b8)"/><path fill="#afb1b8" d="m27 20 3-4v-4l-2-1a7 7 0 0 1-1 9zM34 15l-3 4h-1l3-1 2-2-1-1z" style="fill:var(--color1, #afb1b8)"/><path fill="#afb1b8" d="m33 15-1-1-1 3-3 3h1l3-2 1-3zM27 10l-1-1c-2 0-3 1-3 2l-2 3 2 3 3 2 3-4c1-1-1-4-2-5zM37 15l-2-4-5-2-2 1 8 7 1-2z" style="fill:var(--color1, #afb1b8)"/></symbol><symbol id="icon-envelope" viewBox="0 0 43 32"><path fill="#2196f3" d="M39 0H4C2 0 0 2 0 4v24c0 2 2 4 4 4h35c2 0 4-2 4-4V4c0-2-2-4-4-4zm0 3L21 18 3 3h36zm0 26H4l-1-1V6l17 15a1 1 0 0 0 2 0L40 6v22l-1 1z" style="fill:var(--color2, #2196f3)"/></symbol><symbol id="icon-groupfour" viewBox="0 0 72 32"><path fill="#f5f4fa" d="M1 0h70l1 1v30l-1 1H1l-1-1V1l1-1z" style="fill:var(--color3, #f5f4fa)"/><path fill="#2196f3" d="M45 9h-1l-1-1-1 1h-1v1h1v2l1-1 1 1h1l-1-2h1V9zm-1 1v1h-2l1-1h-1 1V9l1 1zM42 19h-1 1zM42 20h-1v1h1v-1zM43 19h-1v1h1v-1zM41 19v1-1zM40 22h-1v1h1v-1zM40 23h-1v1h1v-1zM40 23zM39 23h-1 1zM36 21h-1 1zM36 22h-1v1h1v-1zM37 21h-1v1h1v-1zM35 21v1-1zM30 10h-1v1h1v-1zM30 11h-1v1h1v-1zM31 11h-1 1zM29 11z" style="fill:var(--color2, #2196f3)"/><path fill="#212121" d="M41 15h-1c0-1 0 0 0 0h-1l-1 1h-1a4 4 0 0 0-2-8 4 4 0 0 0-3 6h-2l-2 1-1 1a1 1 0 0 0 1 2l1-1 1-1h1l-3 4h-1a1 1 0 0 0 0 2 1 1 0 0 0 2 0v-1l1-1 1 1-1 1-1 1v1h1c1 0 0 0 0 0l2-2 1-1 3-3h2l2-1 1-1v-1zm-13 2h-1v-1h1v1zm2-1h-1l1-1v1zm9-4-1 2-2-2V9c2 0 3 2 3 3zm-7 0a3 3 0 0 1 4-3l-1 2-1 2 1 1 1-1 2 1a3 3 0 0 1-6-2zm3 1h-1l1-1v1zm-7 8v-1l1 1h-1zm2 3-1-1 1-1 1 1-1 1zm2-3-1 2-1-1 2-1-1-1h-1c-1 0 0 0 0 0h-1l1-2 3 3h-1zm4-4-3 3-3-2 2-2h-1v-1h1a4 4 0 0 0 4 1l2 1v1l-2-1zm2 1v-1l1-1 1 1h-2zm3-2h-1v-1h1v1z" style="fill:var(--color4, #212121)"/><path fill="#212121" d="m35 17-2-1-1 1v1l1 1 2-1v-1zm-2 2-1-1 1-1 1 1-1 1zM37 10l1 1-1-1zM38 12v1-1z" style="fill:var(--color4, #212121)"/></symbol><symbol id="icon-groupone" viewBox="0 0 72 32"><path fill="#f5f4fa" d="M1 0h70l1 1v30l-1 1H1l-1-1V1l1-1z" style="fill:var(--color3, #f5f4fa)"/><path fill="#212121" d="m45 20-5-5v-3h1a1 1 0 1 0-1-1l-3 1-5-5h-1v1c-1 0-1 0 0 0v1a9 9 0 0 0 2 10v4h-4l-2 1v1h15v-1l-1-1h-4v-2a9 9 0 0 0 6-1v1h1l1-1zm-5-10a1 1 0 1 1 1 1 1 1 0 0 1-1-1zm0 2-1 2-1-1 2-1zm-1 0-1 1-1-1h2zm2 11 1 1v1H28v-1l1-1h12zm-5-1v1h-3v-1h3zm-3 0v-3l2-1 1 1v3h-3zm4-1v-2l-2-2-2 1c-3-2-3-6-1-9l10 11-5 1zm7-1L31 8l1-1 4 5 8 8z" style="fill:var(--color4, #212121)"/><path fill="#2196f3" d="M35 18a1 1 0 0 0 0 2 1 1 0 0 0 0-2zm0 2v-1 1z" style="fill:var(--color2, #2196f3)"/></symbol><symbol id="icon-groupthree" viewBox="0 0 72 32"><path fill="#f5f4fa" d="M1 0h70l1 1v30l-1 1H1l-1-1V1l1-1z" style="fill:var(--color3, #f5f4fa)"/><path fill="#2196f3" d="M35 15h1v3h-1v-3zM38 17v1-1zM33 18h1-1zM31 17h1v1h-1v-1z" style="fill:var(--color2, #2196f3)"/><path fill="#212121" d="M28 23h15v-3h-1v-8l2-1a1 1 0 1 0 0-1l-2 1-1-1H29l-1 1v9l-1 1v1l1 1zM44 9v1-1zm-15 2v-1h12l1 1v1l-1 1v-2H29v8h12v-6h1v7H29v-9zm2 4a1 1 0 1 0 1 1l1 1 3-3 2 2 2-2v5H30v-7h10v1l-2 2-2-1h-1l-2 2h-1l-1-1zm1 1h-1 1zm2 5h3-3zm-7 0h6l1 1h2l1-1h6v2H28l-1-1v-1z" style="fill:var(--color4, #212121)"/></symbol><symbol id="icon-grouptwo" viewBox="0 0 72 32"><path fill="#f5f4fa" d="M1 0h70l1 1v30l-1 1H1l-1-1V1l1-1z" style="fill:var(--color3, #f5f4fa)"/><path fill="#212121" d="M45 16a9 9 0 1 0-12 8h1l2-7a1 1 0 1 0 0-2l-3-3h-1l3 3v1l-2 7a8 8 0 1 1 6 0v-1h-1l-2 2 3 1h1l-1-1c4-2 6-5 6-8zm-9-1v1-1zm1 9 1-1 1 1h-2z" style="fill:var(--color4, #212121)"/><path fill="#2196f3" d="M36 9zM29 15v1h1v-1h-1zM43 16v-1h-1v1h1z" style="fill:var(--color2, #2196f3)"/></symbol><symbol id="icon-overlay" viewBox="0 0 85 32"><path d="M0 0h85v32H0V0z"/></symbol><symbol id="icon-smartphone" viewBox="0 0 20 32"><path fill="#757575" d="M17 0H3C1 0 0 1 0 3v26c0 2 1 3 3 3h14c2 0 3-1 3-3V3c0-2-1-3-3-3zM3 2h14l1 1v21H2V3l1-1zm14 28H3l-1-1v-3h16v3l-1 1z" style="fill:var(--color5, #757575)"/><path fill="#757575" d="M5 27v2H3v-2h2z" style="fill:var(--color5, #757575)"/></symbol><symbol id="icon-sociallinks" viewBox="0 0 150 32"><path fill="#fff" d="M150 16a16 16 0 0 1-27 11 16 16 0 0 1 11-27 16 16 0 0 1 16 16z" style="fill:var(--color6, #fff)"/><path fill="#afb1b8" d="M141 23v-5c0-3 0-5-4-5l-2 2v-1h-3v9h3v-5c0-1 0-2 2-2l1 3v4h3zM127 14h3v9h-3v-9zM128 9l-1 1 1 2 2-2-2-1z" style="fill:var(--color1, #afb1b8)"/><path fill="#fff" d="M111 16a16 16 0 0 1-28 11A16 16 0 0 1 95 0a16 16 0 0 1 16 16z" style="fill:var(--color6, #fff)"/><path fill="#afb1b8" d="M97 11h1V9h-2c-2 0-3 1-3 3v2h-2v3h2v6h3v-6h2v-3h-2v-2l1-1z" style="fill:var(--color1, #afb1b8)"/><path fill="#fff" d="M71 16a16 16 0 0 1-27 11A16 16 0 0 1 55 0a16 16 0 0 1 16 16z" style="fill:var(--color6, #fff)"/><path fill="#afb1b8" d="m63 11-2 1 1-2-2 1a3 3 0 0 0-5 3l-6-3a3 3 0 0 0 1 4l-1-1c0 2 1 3 2 3a3 3 0 0 1-1 0l2 2a6 6 0 0 1-4 2l5 1a8 8 0 0 0 8-9l2-2z" style="fill:var(--color1, #afb1b8)"/><path fill="#fff" d="M32 16A16 16 0 0 1 5 27 16 16 0 0 1 16 0c4 0 8 2 11 5s5 7 5 11z" style="fill:var(--color6, #fff)"/><path fill="#afb1b8" d="M23 13v-2l-1-1-1-1h-2a49 49 0 0 0-8 0l-1 1-1 1v2a50 50 0 0 0 0 8l1 1 1 1h2a53 53 0 0 0 8 0l2-2v-8zm-1 6v1l-2 2h-1a51 51 0 0 1-7 0l-1-1-1-1v-1a51 51 0 0 1 0-7l1-1 1-1h1a51 51 0 0 1 7 0l1 1 1 1v7z" style="fill:var(--color1, #afb1b8)"/><path fill="#afb1b8" d="M16 12a4 4 0 1 0 0 8 4 4 0 0 0 0-8zm0 6a2 2 0 1 1 0-4 2 2 0 0 1 0 4zM21 12a1 1 0 1 1-2 0 1 1 0 0 1 2 0z" style="fill:var(--color1, #afb1b8)"/></symbol></defs></svg>